<svg xmlns="http://www.w3.org/2000/svg" width="736" height="416" class="svgbob">
    <style>
        .svgbob line,
        .svgbob path,
        .svgbob circle,
        .svgbob rect,
        .svgbob polygon {
            stroke: black;
            stroke-width: 2;
            stroke-opacity: 1;
            fill-opacity: 1;
            stroke-linecap: round;
            stroke-linejoin: miter;
        }

        .svgbob text {
            white-space: pre;
            fill: black;
            font-family: Iosevka Fixed, monospace;
            font-size: 14px;
        }

        .svgbob rect.backdrop {
            stroke: none;
            fill: white;
        }

        .svgbob .broken {
            stroke-dasharray: 8;
        }

        .svgbob .filled {
            fill: black;
        }

        .svgbob .bg_filled {
            fill: white;
            stroke-width: 1;
        }

        .svgbob .nofill {
            fill: white;
        }

        .svgbob .end_marked_arrow {
            marker-end: url(#arrow);
        }

        .svgbob .start_marked_arrow {
            marker-start: url(#arrow);
        }

        .svgbob .end_marked_diamond {
            marker-end: url(#diamond);
        }

        .svgbob .start_marked_diamond {
            marker-start: url(#diamond);
        }

        .svgbob .end_marked_circle {
            marker-end: url(#circle);
        }

        .svgbob .start_marked_circle {
            marker-start: url(#circle);
        }

        .svgbob .end_marked_open_circle {
            marker-end: url(#open_circle);
        }

        .svgbob .start_marked_open_circle {
            marker-start: url(#open_circle);
        }

        .svgbob .end_marked_big_open_circle {
            marker-end: url(#big_open_circle);
        }

        .svgbob .start_marked_big_open_circle {
            marker-start: url(#big_open_circle);
        }
    </style>
    <defs>
        <marker id="arrow" viewBox="-2 -2 8 8" refX="4" refY="2" markerWidth="7" markerHeight="7" orient="auto-start-reverse">
            <polygon points="0,0 0,4 4,2 0,0"></polygon>
        </marker>
        <marker id="diamond" viewBox="-2 -2 8 8" refX="4" refY="2" markerWidth="7" markerHeight="7" orient="auto-start-reverse">
            <polygon points="0,2 2,0 4,2 2,4 0,2"></polygon>
        </marker>
        <marker id="circle" viewBox="0 0 8 8" refX="4" refY="4" markerWidth="7" markerHeight="7" orient="auto-start-reverse">
            <circle cx="4" cy="4" r="2" class="filled"></circle>
        </marker>
        <marker id="open_circle" viewBox="0 0 8 8" refX="4" refY="4" markerWidth="7" markerHeight="7" orient="auto-start-reverse">
            <circle cx="4" cy="4" r="2" class="bg_filled"></circle>
        </marker>
        <marker id="big_open_circle" viewBox="0 0 8 8" refX="4" refY="4" markerWidth="7" markerHeight="7" orient="auto-start-reverse">
            <circle cx="4" cy="4" r="3" class="bg_filled"></circle>
        </marker>
    </defs>
    <rect class="backdrop" x="0" y="0" width="736" height="416"></rect><text x="2" y="12">:</text><text x="18" y="12">QUADRUPLE</text><text x="98"
        y="12">DOUBLE</text><text x="154" y="12">DOUBLE</text><text x="210" y="12">;</text><text x="18" y="60">codeword</text><text x="18"
        y="92">addr</text><text x="58" y="92">of</text><text x="82" y="92">DOUBLE</text>
    <line x1="144" y1="88" x2="264" y2="88" class="solid"></line>
    <polygon points="264,84 272,88 264,92" class="filled"></polygon><text x="18" y="124">addr</text><text x="58" y="124">of</text><text x="82"
        y="124">DOUBLE</text><text x="18" y="156">addr</text><text x="58" y="156">of</text><text x="82" y="156">EXIT</text><text x="282" y="60">:</text><text
        x="298" y="60">DOUBLE</text><text x="354" y="60">DUP</text><text x="386" y="60">+</text><text x="402" y="60">;</text><text x="298"
        y="108">codeword</text><text x="298" y="140">addr</text><text x="338" y="140">of</text><text x="362" y="140">DUP</text>
    <line x1="408" y1="136" x2="520" y2="136" class="solid"></line>
    <polygon points="520,132 528,136 520,140" class="filled"></polygon><text x="298" y="172">addr</text><text x="338" y="172">of</text><text x="362"
        y="172">+</text><text x="298" y="204">addr</text><text x="338" y="204">of</text><text x="362" y="204">EXIT</text>
    <polygon points="520,276 528,280 520,284" class="filled"></polygon><text x="554" y="156">codeword</text><text x="554" y="188">assembly</text><text x="626"
        y="188">to</text>
    <polygon points="680,180 672,184 680,188" class="filled"></polygon><text x="554" y="204">implement</text><text x="634" y="204">DUP</text><text x="578"
        y="220">..</text><text x="554" y="236">NEXT</text><text x="218" y="172">%esi</text>
    <line x1="256" y1="168" x2="264" y2="168" class="solid"></line>
    <polygon points="264,164 272,168 264,172" class="filled"></polygon><text x="554" y="300">codeword</text><text x="554" y="332">assembly</text><text x="626"
        y="332">to</text>
    <polygon points="672,324 664,328 672,332" class="filled"></polygon><text x="554" y="348">implement</text><text x="634" y="348">+</text><text x="578"
        y="364">..</text><text x="554" y="380">NEXT</text>
    <g>
        <line x1="4" y1="40" x2="156" y2="40" class="solid"></line>
        <line x1="4" y1="40" x2="4" y2="168" class="solid"></line>
        <line x1="156" y1="40" x2="156" y2="72" class="solid"></line>
        <line x1="4" y1="72" x2="156" y2="72" class="solid"></line>
        <line x1="4" y1="104" x2="156" y2="104" class="solid"></line>
        <line x1="156" y1="104" x2="156" y2="168" class="solid"></line>
        <line x1="4" y1="136" x2="156" y2="136" class="solid"></line>
        <line x1="4" y1="168" x2="156" y2="168" class="solid"></line>
    </g>
    <g>
        <line x1="284" y1="88" x2="436" y2="88" class="solid"></line>
        <line x1="284" y1="88" x2="284" y2="216" class="solid"></line>
        <line x1="436" y1="88" x2="436" y2="120" class="solid"></line>
        <line x1="284" y1="120" x2="436" y2="120" class="solid"></line>
        <line x1="284" y1="152" x2="436" y2="152" class="solid"></line>
        <line x1="284" y1="184" x2="436" y2="184" class="solid"></line>
        <line x1="436" y1="184" x2="436" y2="216" class="solid"></line>
        <line x1="284" y1="216" x2="436" y2="216" class="solid"></line>
    </g>
    <g>
        <line x1="408" y1="168" x2="476" y2="168" class="solid"></line>
        <line x1="476" y1="168" x2="476" y2="280" class="solid"></line>
        <line x1="476" y1="280" x2="520" y2="280" class="solid"></line>
    </g>
    <g>
        <line x1="540" y1="136" x2="692" y2="136" class="solid"></line>
        <line x1="540" y1="136" x2="540" y2="248" class="solid"></line>
        <line x1="540" y1="168" x2="692" y2="168" class="solid"></line>
        <line x1="692" y1="192" x2="692" y2="248" class="solid"></line>
        <line x1="540" y1="248" x2="692" y2="248" class="solid"></line>
    </g>
    <g>
        <line x1="664" y1="152" x2="724" y2="152" class="solid"></line>
        <line x1="724" y1="152" x2="724" y2="184" class="solid"></line>
        <line x1="680" y1="184" x2="724" y2="184" class="solid"></line>
    </g>
    <g>
        <line x1="540" y1="280" x2="692" y2="280" class="solid"></line>
        <line x1="540" y1="280" x2="540" y2="392" class="solid"></line>
        <line x1="540" y1="312" x2="692" y2="312" class="solid"></line>
        <line x1="692" y1="336" x2="692" y2="392" class="solid"></line>
        <line x1="540" y1="392" x2="692" y2="392" class="solid"></line>
    </g>
    <g>
        <line x1="664" y1="296" x2="724" y2="296" class="solid"></line>
        <line x1="724" y1="296" x2="724" y2="328" class="solid"></line>
        <line x1="672" y1="328" x2="724" y2="328" class="solid"></line>
    </g>
</svg>