<!--
  Provenance: generated by https://github.com/jburgy/blog/tree/main/regexp/tracing
  gen.mjs drew NEXT #791 of out.json, which snap.mjs recorded while the regexp.f demo's own
  matcher.mjs / forth.mjs / regexp.f matched a(b|c)*d against "abccbcccd" on tabulate.traced.wast
  (Node v24.18.0, V8 13.6.233.17-node.50, arm64). Rebuild with: cd regexp/tracing; npm install; npm run publish
-->
<svg id="rs" xmlns="http://www.w3.org/2000/svg" viewBox="0 0 960 1324" width="960" height="1324" role="img" aria-labelledby="rs-title">
<title id="rs-title">Every layer of the regexp.f demo, frozen halfway through matching a(b|c)*d against abccbcccd: JavaScript call stack, WebAssembly tier and machine code, linear memory, Forth data and return stacks, and the compiled threaded code with its NFA.</title>
<style>
#rs{--bg:#fff;--fg:#1f2328;--muted:#6e7781;--line:#d0d7de;--panel:#f6f8fa;--cell:#fff;--acc:#b58900;--th:#859900;--sen:#d33682;--fc:#268bd2;--ds:#2aa198;
font:12px -apple-system,"Segoe UI",Roboto,Helvetica,Arial,sans-serif;fill:var(--fg)}
@media (prefers-color-scheme:dark){#rs{--bg:#0d1117;--fg:#e6edf3;--muted:#8d96a0;--line:#3d444d;--panel:#161b22;--cell:#0d1117}}
#rs text{fill:var(--fg)}
#rs .bg{fill:var(--bg)}
#rs .title{font-size:21px;font-weight:600}
#rs .h{font-size:14px;font-weight:600}
#rs .b{font-weight:600}
#rs .s{font-size:11.5px}
#rs .xs{font-size:10.5px}
#rs .xxs{font-size:9.5px}
#rs .c{font-family:Menlo,Consolas,"DejaVu Sans Mono",monospace}
#rs text.m,#rs .m{fill:var(--muted)}
#rs text.acc,#rs .acc{fill:var(--acc)}
#rs text.th,#rs .th{fill:var(--th)}
#rs .p{fill:var(--panel);stroke:var(--line)}
#rs .cell{fill:var(--cell);stroke:var(--line)}
#rs .edge-acc{stroke:var(--acc);stroke-width:2}
#rs .ghost{stroke:var(--acc);stroke-dasharray:4 3}
#rs .ghost-th{stroke:var(--th);stroke-dasharray:4 3}
#rs .now-cell{fill:var(--acc);fill-opacity:.3;stroke:var(--acc)}
#rs .seg{fill:var(--cell);stroke:var(--line)}
#rs .seg.alt{fill:var(--panel)}
#rs .seg.now{fill:var(--acc);fill-opacity:.3;stroke:var(--acc)}
#rs .ds{fill:var(--ds);fill-opacity:.15;stroke:var(--line)}
#rs .rs{fill:var(--fc);fill-opacity:.15;stroke:var(--line)}
#rs .live-ds{fill:var(--ds)}
#rs .live-rs{fill:var(--fc)}
#rs .now-line{stroke:var(--acc);stroke-width:2}
#rs .ptr{stroke:var(--muted);stroke-width:1}
#rs .arrow{fill:none;stroke:var(--muted);stroke-width:1.3}
#rs .now-edge{stroke:var(--acc);stroke-width:2.2}
#rs .pend-edge{stroke:var(--th);stroke-dasharray:5 3;stroke-width:1.8}
#rs .k-now{fill:var(--acc)}
#rs .k-th{fill:var(--th)}
#rs .k-sen{fill:var(--sen)}
#rs .k-fc{fill:var(--fc)}
#rs .k-ds{fill:var(--ds)}
#rs .hl-now{fill:var(--acc);fill-opacity:.35}
#rs .hl-th{fill:var(--th);fill-opacity:.3}
#rs .hl-pend{fill:none;stroke:var(--th);stroke-dasharray:3 2}
#rs .hl-sen{fill:var(--sen);fill-opacity:.25}
#rs .n{fill:var(--cell);stroke:var(--muted);stroke-width:1.3}
#rs .n-th{fill:var(--th);fill-opacity:.25;stroke:var(--acc);stroke-width:2.2}
#rs .head{fill:var(--muted)}
#rs .head-acc{fill:var(--acc)}
</style>
<defs>
<marker id="rs-head" viewBox="0 0 10 10" refX="9" refY="5" markerWidth="7" markerHeight="7" orient="auto-start-reverse"><path d="M0 0L10 5L0 10z" class="head"/></marker>
<marker id="rs-head-acc" viewBox="0 0 10 10" refX="9" refY="5" markerWidth="7" markerHeight="7" orient="auto-start-reverse"><path d="M0 0L10 5L0 10z" class="head-acc"/></marker>
</defs>
<rect width="960" height="1324" rx="10" class="bg"/>
<text x="20" y="32" class="title">Inside one click: <tspan class="c">a(b|c)*d</tspan> against <tspan class="c">abccbcccd</tspan></text>
<text x="20" y="54" class="m">One instant, NEXT #791 of 1,629 in the first call of R, measured end to end through every layer</text>
<text x="40" y="84" class="m s">Forth NEXTs executed by R, one segment per character of the subject</text>
<text x="920" y="84" class="m s" text-anchor="end">179 NEXTs per character inside the loop · 5,102 for the whole click</text>
<rect x="40.0" y="92" width="21.6" height="24" class="seg alt"/>
<rect x="61.6" y="92" width="69.1" height="24" class="seg"/>
<text x="96.2" y="109" class="c" text-anchor="middle">a</text>
<text x="61.6" y="130" class="m xs" text-anchor="middle">40</text>
<rect x="130.8" y="92" width="96.7" height="24" class="seg alt"/>
<text x="179.1" y="109" class="c" text-anchor="middle">b</text>
<text x="130.8" y="130" class="m xs" text-anchor="middle">168</text>
<rect x="227.5" y="92" width="96.7" height="24" class="seg"/>
<text x="275.8" y="109" class="c" text-anchor="middle">c</text>
<text x="227.5" y="130" class="m xs" text-anchor="middle">347</text>
<rect x="324.1" y="92" width="96.7" height="24" class="seg alt"/>
<text x="372.5" y="109" class="c" text-anchor="middle">c</text>
<text x="324.1" y="130" class="m xs" text-anchor="middle">526</text>
<rect x="420.8" y="92" width="96.7" height="24" class="seg now"/>
<text x="432.8" y="109" class="c b" text-anchor="middle">b</text>
<text x="420.8" y="130" class="m xs" text-anchor="middle">705</text>
<rect x="517.5" y="92" width="96.7" height="24" class="seg alt"/>
<text x="565.9" y="109" class="c" text-anchor="middle">c</text>
<text x="517.5" y="130" class="m xs" text-anchor="middle">884</text>
<rect x="614.2" y="92" width="96.7" height="24" class="seg"/>
<text x="662.6" y="109" class="c" text-anchor="middle">c</text>
<text x="614.2" y="130" class="m xs" text-anchor="middle">1063</text>
<rect x="710.9" y="92" width="96.7" height="24" class="seg alt"/>
<text x="759.3" y="109" class="c" text-anchor="middle">c</text>
<text x="710.9" y="130" class="m xs" text-anchor="middle">1242</text>
<rect x="807.6" y="92" width="91.3" height="24" class="seg"/>
<text x="853.3" y="109" class="c" text-anchor="middle">d</text>
<text x="807.6" y="130" class="m xs" text-anchor="middle">1421</text>
<rect x="898.9" y="92" width="21.1" height="24" class="seg alt"/>
<text x="909.5" y="109" class="c s" text-anchor="middle">\0</text>
<text x="898.9" y="130" class="m xs" text-anchor="middle">1590</text>
<line x1="467.3" y1="86" x2="467.3" y2="122" class="now-line"/>
<text x="467.3" y="146" class="acc s b" text-anchor="middle">▲ #791: fifth character, a ‘b’, taken by the (b|c)* loop</text>
<text x="40" y="146" class="m xs">setup</text>
<text x="920" y="146" class="m xs" text-anchor="end">accept</text>
<rect x="20" y="162" width="920" height="104" class="p" rx="8"/>
<text x="34" y="186" class="h">JavaScript</text>
<text x="34" y="204" class="m s">V8 main thread</text>
<text x="34" y="218" class="m s">call stack →</text>
<rect x="160" y="178" width="146" height="46" class="cell" rx="5"/>
<text x="233" y="198" class="c b" text-anchor="middle">submit listener</text>
<text x="233" y="214" class="m xs" text-anchor="middle">demo.mjs:67</text>
<path d="M 308 201 h 8" class="arrow" marker-end="url(#rs-head)"/>
<rect x="318" y="178" width="146" height="46" class="cell" rx="5"/>
<text x="391" y="198" class="c b" text-anchor="middle">run()</text>
<text x="391" y="214" class="m xs" text-anchor="middle">demo.mjs:49</text>
<path d="M 466 201 h 8" class="arrow" marker-end="url(#rs-head)"/>
<rect x="476" y="178" width="146" height="46" class="cell" rx="5"/>
<text x="549" y="198" class="c b" text-anchor="middle">Matcher.search()</text>
<text x="549" y="214" class="m xs" text-anchor="middle">matcher.mjs:152</text>
<path d="M 624 201 h 8" class="arrow" marker-end="url(#rs-head)"/>
<rect x="634" y="178" width="146" height="46" class="cell" rx="5"/>
<text x="707" y="198" class="c b" text-anchor="middle">Forth.eval()</text>
<text x="707" y="214" class="m xs" text-anchor="middle">forth.mjs:43</text>
<path d="M 782 201 h 8" class="arrow" marker-end="url(#rs-head)"/>
<rect x="792" y="178" width="146" height="46" class="cell edge-acc" rx="5"/>
<text x="865" y="198" class="c b" text-anchor="middle">_start</text>
<text x="865" y="214" class="m xs" text-anchor="middle">wasm-function[10]</text>
<text x="160" y="244" class="c s"><tspan class="m">source handed to the interpreter: </tspan>REWIND : R RE" a(b|c)*d" ; LATEST @ &gt;CFA RE-SCAN</text>
<text x="160" y="259" class="m xs">frames 3–5 from new Error().stack inside the trace hook; 1–2 are what the page adds on top of them</text>
<rect x="20" y="278" width="920" height="214" class="p" rx="8"/>
<text x="34" y="302" class="h">WebAssembly</text>
<text x="34" y="320" class="m s">_start is the whole</text>
<text x="34" y="334" class="m s">interpreter: one</text>
<text x="34" y="348" class="m s">function, one loop,</text>
<text x="34" y="362" class="m s">one 100-way br_table</text>
<text x="160" y="302" class="b s">Which tier runs _start (%IsTurboFanFunction)</text>
<text x="160" y="320" class="c s">eval #1</text>
<text x="230" y="320" class="s">4th.32.fs</text>
<text x="335" y="320" class="c s">uncompiled → TurboFan</text>
<text x="160" y="335" class="c s">eval #2–4</text>
<text x="230" y="335" class="s">regexp.f + glue</text>
<text x="335" y="335" class="c s">TurboFan</text>
<text x="160" y="350" class="c s">eval #5</text>
<text x="230" y="350" class="s">this click</text>
<text x="335" y="350" class="c s acc b">TurboFan</text>
<text x="160" y="372" class="s">arm64 code: Liftoff 10,600 B, TurboFan 9,280 B</text>
<text x="160" y="388" class="s">≈25 µs per click ⇒ ≈5 ns per NEXT</text>
<rect x="160" y="402" width="312" height="80" class="cell" rx="5"/>
<text x="170" y="419" class="b s">Wasm locals of _start at this instant</text>
<text x="170" y="436" class="c s">$cfa</text>
<text x="210" y="436" class="c s b">0x87F4</text>
<text x="270" y="436" class="m xs">RE-MEMBER?  (*$cfa = 0 → $_docol)</text>
<text x="170" y="450" class="c s">$ip</text>
<text x="210" y="450" class="c s b">0x8874</text>
<text x="270" y="450" class="m xs">(NNODE)+20</text>
<text x="170" y="464" class="c s">$sp</text>
<text x="210" y="464" class="c s b">0x1FF8</text>
<text x="270" y="464" class="m xs">two cells deep</text>
<text x="170" y="478" class="c s">$rsp</text>
<text x="210" y="478" class="c s b">0x3FEC</text>
<text x="270" y="478" class="m xs">five cells deep</text>
<text x="500" y="302" class="b s">NEXT and dispatch, as TurboFan compiled them</text>
<text x="500" y="317" class="m xs">x8 = linear-memory base · w12 = $ip · w13 = $cfa · w14 = codeword</text>
<text x="500" y="336" class="m c xs">+0x54</text>
<text x="542" y="336" class="c xs">mov   w13, w12</text>
<text x="750" y="336" class="m xs">$cfa ← $ip</text>
<text x="500" y="349" class="m c xs">+0x58</text>
<text x="542" y="349" class="c xs">ldr   w13, [x8, x13]</text>
<text x="750" y="349" class="m xs">$cfa ← mem[$ip]</text>
<text x="500" y="362" class="m c xs">+0x5c</text>
<text x="542" y="362" class="c xs">add   w12, w12, #4</text>
<text x="750" y="362" class="m xs">$ip += 4</text>
<text x="500" y="375" class="m c xs">+0x60</text>
<text x="542" y="375" class="c xs">str   x12, [sp, #72]</text>
<text x="750" y="375" class="m xs">spill $ip to the frame</text>
<text x="500" y="388" class="m c xs">+0x6c</text>
<text x="542" y="388" class="c xs">ldur  x14, [x26, #-224]</text>
<text x="750" y="388" class="m xs">stack limit …</text>
<text x="500" y="401" class="m c xs">+0x70</text>
<text x="542" y="401" class="c xs">cmp   sp, x14 ; b.ls</text>
<text x="750" y="401" class="m xs">… checked every iteration</text>
<text x="500" y="414" class="m c xs">+0x78</text>
<text x="542" y="414" class="c xs">ldr   w14, [x8, x13]</text>
<text x="750" y="414" class="m xs">codeword ← mem[$cfa]</text>
<text x="500" y="427" class="m c xs">+0x7c</text>
<text x="542" y="427" class="c xs">cmp   x14, #100 ; b.hs</text>
<text x="750" y="427" class="m xs">br_table bounds check</text>
<text x="500" y="440" class="m c xs">+0x84</text>
<text x="542" y="440" class="c xs">adr   x16, table</text>
<text x="750" y="440" class="m xs"></text>
<text x="500" y="453" class="m c xs">+0x94</text>
<text x="542" y="453" class="c xs">ldrsw x17, [x16, x14, lsl #2]</text>
<text x="750" y="453" class="m xs">jump-table entry</text>
<text x="500" y="466" class="m c xs">+0x98</text>
<text x="542" y="466" class="c xs">add   x16, x16, x17</text>
<text x="750" y="466" class="m xs"></text>
<text x="500" y="479" class="m c xs">+0x9c</text>
<text x="542" y="479" class="c xs acc b">br    x16</text>
<text x="750" y="479" class="m xs">→ $_docol, $drop, $swap, …</text>
<rect x="20" y="504" width="920" height="124" class="p" rx="8"/>
<text x="34" y="528" class="h">Linear memory</text>
<text x="34" y="546" class="m s">2 × 64 KiB pages,</text>
<text x="34" y="560" class="m s">HERE = 0xA92C</text>
<rect x="160" y="538" width="141.8" height="24" class="ds"/>
<text x="230.9" y="532" class="m xs" text-anchor="middle">data stack ↓</text>
<rect x="301.8" y="538" width="141.8" height="24" class="rs"/>
<text x="372.7" y="532" class="m xs" text-anchor="middle">return stack ↓</text>
<rect x="443.6" y="538" width="70.9" height="24" class="seg alt"/>
<text x="479.1" y="532" class="m xs" text-anchor="middle">TIB</text>
<rect x="514.5" y="538" width="31.0" height="24" class="seg"/>
<rect x="545.5" y="538" width="358.8" height="24" class="seg alt"/>
<text x="724.9" y="532" class="m xs" text-anchor="middle">dictionary: 4th.32.fs, regexp.f, glue →</text>
<rect x="904.3" y="538" width="5.4" height="24" class="seg now"/>
<rect x="909.7" y="538" width="30.3" height="24" class="seg"/>
<rect x="301.7" y="538" width="2" height="24" class="live-ds"/>
<rect x="443.3" y="538" width="2" height="24" class="live-rs"/>
<text x="162" y="576" class="m c xxs">0x0000</text>
<text x="303.8" y="576" class="m c xxs">0x2000</text>
<text x="445.6" y="576" class="m c xxs">0x4000</text>
<text x="516.5" y="576" class="m c xxs">0x5000</text>
<text x="940" y="576" class="m c xxs" text-anchor="end">0xB000</text>
<line x1="301.7" y1="562" x2="301.7" y2="588" class="ptr"/>
<text x="298.7" y="598" class="c xs" text-anchor="end">sp 0x1FF8</text>
<line x1="443.3" y1="562" x2="443.3" y2="588" class="ptr"/>
<text x="440.3" y="598" class="c xs" text-anchor="end">rsp 0x3FEC</text>
<line x1="744.7" y1="562" x2="744.7" y2="588" class="ptr"/>
<text x="744.7" y="598" class="c xs" text-anchor="middle">RE-POS … RE-NLIST 0x83EC</text>
<line x1="859.6" y1="562" x2="859.6" y2="602" class="ptr"/>
<text x="859.6" y="612" class="c xs" text-anchor="middle">RE-TXT 0x9DDC</text>
<line x1="904.3" y1="562" x2="904.3" y2="588" class="ptr"/>
<text x="938" y="598" class="c xs" text-anchor="end">R 0xA7F4–0xA92C</text>
<rect x="20" y="640" width="920" height="300" class="p" rx="8"/>
<text x="34" y="664" class="h">Forth</text>
<text x="34" y="682" class="m s">jonesforth dialect,</text>
<text x="34" y="696" class="m s">threaded code in</text>
<text x="34" y="710" class="m s">linear memory</text>
<text x="160" y="664" class="b s">Data stack</text>
<text x="160" y="678" class="m xs">0x0000–0x1FFF, grows down</text>
<rect x="160" y="690" width="170" height="36" class="cell"/>
<rect x="160" y="690" width="4" height="36" class="k-ds"/>
<text x="170" y="705" class="m c xs">0x1FF8 <tspan class="acc b">sp</tspan></text>
<text x="322" y="706" class="c b" text-anchor="end">R+228</text>
<text x="322" y="719" class="m c xxs" text-anchor="end">0xA8E0</text>
<rect x="160" y="726" width="170" height="36" class="cell"/>
<rect x="160" y="726" width="4" height="36" class="k-ds"/>
<text x="170" y="741" class="m c xs">0x1FFC</text>
<text x="322" y="742" class="c b" text-anchor="end">R+228</text>
<text x="322" y="755" class="m c xxs" text-anchor="end">0xA8E0</text>
<text x="160" y="782" class="m xs">R&gt; just popped R+168: the</text>
<text x="160" y="796" class="m xs">“return address” of the call to</text>
<text x="160" y="810" class="m xs">(NNODE) at R+164 is the state</text>
<text x="160" y="824" class="m xs">that follows ‘b’. RE-RESOLVE</text>
<text x="160" y="838" class="m xs">chased its BRANCH to R+228;</text>
<text x="160" y="852" class="m xs">DUP kept a copy for RE-MEMBER?</text>
<text x="160" y="866" class="m xs">which is being entered now.</text>
<text x="344" y="664" class="b s">Return stack</text>
<text x="344" y="678" class="m xs">0x2000–0x3FFF, grows down</text>
<rect x="344" y="690" width="272" height="36" class="cell ghost"/>
<rect x="344" y="690" width="4" height="36" class="k-now"/>
<text x="354" y="705" class="m c xs">next</text>
<text x="428" y="705" class="c b">(NNODE)+20</text>
<text x="608" y="705" class="m c xxs" text-anchor="end">0x8874</text>
<text x="428" y="719" class="m xs">DOCOL pushes it into RE-MEMBER?</text>
<rect x="344" y="730" width="272" height="36" class="cell"/>
<rect x="344" y="730" width="4" height="36" class="k-th"/>
<text x="354" y="745" class="m c xs">0x3FEC <tspan class="acc b">rsp</tspan></text>
<text x="428" y="745" class="c b">R+236</text>
<text x="608" y="745" class="m c xxs" text-anchor="end">0xA8E8</text>
<text x="428" y="759" class="m xs">pending thread: exit loop, try d</text>
<rect x="344" y="766" width="272" height="36" class="cell"/>
<rect x="344" y="766" width="4" height="36" class="k-sen"/>
<text x="354" y="781" class="m c xs">0x3FF0</text>
<text x="428" y="781" class="c b">R+24</text>
<text x="608" y="781" class="m c xxs" text-anchor="end">0xA814</text>
<text x="428" y="795" class="m xs">sentinel: go read the next char</text>
<rect x="344" y="802" width="272" height="36" class="cell"/>
<rect x="344" y="802" width="4" height="36" class="k-fc"/>
<text x="354" y="817" class="m c xs">0x3FF4</text>
<text x="428" y="817" class="c b">RE-TRY+24</text>
<text x="608" y="817" class="m c xxs" text-anchor="end">0xA67C</text>
<text x="428" y="831" class="m xs">R’s caller; RE-RSP unwinds here</text>
<rect x="344" y="838" width="272" height="36" class="cell"/>
<rect x="344" y="838" width="4" height="36" class="k-fc"/>
<text x="354" y="853" class="m c xs">0x3FF8</text>
<text x="428" y="853" class="c b">RE-SCAN+48</text>
<text x="608" y="853" class="m c xxs" text-anchor="end">0xA6BC</text>
<text x="428" y="867" class="m xs">RE-SCAN called RE-TRY</text>
<rect x="344" y="874" width="272" height="36" class="cell"/>
<rect x="344" y="874" width="4" height="36" class="k-fc"/>
<text x="354" y="889" class="m c xs">0x3FFC</text>
<text x="428" y="889" class="c b">QUIT+16</text>
<text x="608" y="889" class="m c xxs" text-anchor="end">0x5698</text>
<text x="428" y="903" class="m xs">INTERPRET dispatched RE-SCAN</text>
<text x="632" y="664" class="b s">Thompson’s machine</text>
<text x="632" y="678" class="m xs">regexp.f variables</text>
<rect x="632" y="690" width="30" height="30" class="cell"/>
<text x="647" y="710" class="c m" text-anchor="middle">a</text>
<rect x="662" y="690" width="30" height="30" class="cell"/>
<text x="677" y="710" class="c m" text-anchor="middle">b</text>
<rect x="692" y="690" width="30" height="30" class="cell"/>
<text x="707" y="710" class="c m" text-anchor="middle">c</text>
<rect x="722" y="690" width="30" height="30" class="cell"/>
<text x="737" y="710" class="c m" text-anchor="middle">c</text>
<rect x="752" y="690" width="30" height="30" class="cell now-cell"/>
<text x="767" y="710" class="c" text-anchor="middle">b</text>
<rect x="782" y="690" width="30" height="30" class="cell"/>
<text x="797" y="710" class="c" text-anchor="middle">c</text>
<rect x="812" y="690" width="30" height="30" class="cell"/>
<text x="827" y="710" class="c" text-anchor="middle">c</text>
<rect x="842" y="690" width="30" height="30" class="cell"/>
<text x="857" y="710" class="c" text-anchor="middle">c</text>
<rect x="872" y="690" width="30" height="30" class="cell"/>
<text x="887" y="710" class="c" text-anchor="middle">d</text>
<rect x="902" y="690" width="30" height="30" class="cell"/>
<text x="917" y="710" class="c xs" text-anchor="middle">\0</text>
<text x="632" y="734" class="m c xxs">RE-TXT 0x9DDC</text>
<text x="797" y="734" class="m xs" text-anchor="middle">▲ RE-POS</text>
<text x="632" y="756" class="c xs">RE-CH</text>
<text x="684" y="756" class="c xs b">'b'</text>
<text x="736" y="756" class="m xs">the character every thread tests</text>
<text x="632" y="771" class="c xs">RE-POS</text>
<text x="684" y="771" class="c xs b">0x9DE1</text>
<text x="736" y="771" class="m xs">where RE-LOAD reads next</text>
<text x="632" y="786" class="c xs">RE-N</text>
<text x="684" y="786" class="c xs b">0</text>
<text x="736" y="786" class="m xs">threads queued for the next char</text>
<text x="632" y="801" class="c xs">RE-RSP</text>
<text x="684" y="801" class="c xs b">0x3FF4</text>
<text x="736" y="801" class="m xs">return stack mark for RE-ACCEPT</text>
<text x="632" y="828" class="b s">RE-NLIST 0x846C: Thompson’s NLIST</text>
<rect x="632" y="836" width="60" height="28" class="cell ghost-th"/>
<rect x="694" y="836" width="60" height="28" class="cell"/>
<rect x="756" y="836" width="60" height="28" class="cell"/>
<rect x="818" y="836" width="60" height="28" class="cell"/>
<text x="662" y="854" class="c xs th" text-anchor="middle">R+228</text>
<text x="884" y="854" class="m">…</text>
<text x="632" y="882" class="m xs">↑ (NNODE) stores R+228 here 26 NEXTs from now</text>
<text x="632" y="902" class="xs">CLIST is the return stack above the sentinel:</text>
<text x="632" y="916" class="xs">R+60 moves RE-NLIST onto it with >R, then</text>
<text x="632" y="930" class="xs">each thread’s EXIT “returns” into the next one.</text>
<rect x="20" y="952" width="920" height="300" class="p" rx="8"/>
<text x="34" y="976" class="h">Compiled word R</text>
<text x="34" y="994" class="m s">what RE" left in the</text>
<text x="34" y="1008" class="m s">dictionary: 76 cells</text>
<text x="34" y="1022" class="m s">at 0xA7F4</text>
<text x="160" y="976" class="b s">Threaded code, one row per block (→ marks resolved branch targets)</text>
<text x="160" y="998" class="m c xs">R+4</text>
<text x="204" y="998" class="c b s">hdr</text>
<text x="242.0" y="998" class="c xs">RSP@</text>
<text x="272.8" y="998" class="c xs">LIT</text>
<text x="297.2" y="998" class="c xs">RE-RSP</text>
<text x="340.6" y="998" class="c xs">!</text>
<text x="352.5" y="998" class="c xs">RE-START</text>
<text x="160" y="1019" class="m c xs">R+24</text>
<text x="204" y="1019" class="c b s">loop</text>
<rect x="240" y="1007" width="54.552727272727275" height="16" class="hl-sen" rx="3"/>
<text x="242.0" y="1019" class="c xs">RE-DONE?</text>
<text x="298.1" y="1019" class="c xs">0BRANCH→R+48</text>
<text x="379.4" y="1019" class="c xs">LIT</text>
<text x="403.8" y="1019" class="c xs">0</text>
<text x="415.7" y="1019" class="c xs">EXIT</text>
<text x="160" y="1040" class="m c xs">R+48</text>
<text x="242.0" y="1040" class="c xs">LIT</text>
<text x="266.5" y="1040" class="c xs">R+24</text>
<text x="297.2" y="1040" class="c xs">&gt;R</text>
<text x="315.4" y="1040" class="c xs">RE-THREAD</text>
<text x="377.7" y="1040" class="c xs">DUP</text>
<text x="402.2" y="1040" class="c xs">0BRANCH→R+88</text>
<text x="483.5" y="1040" class="c xs">&gt;R</text>
<text x="501.7" y="1040" class="c xs">BRANCH→R+60</text>
<text x="160" y="1061" class="m c xs">R+88</text>
<text x="242.0" y="1061" class="c xs">DROP</text>
<text x="272.8" y="1061" class="c xs">RE-LOAD</text>
<text x="160" y="1082" class="m c xs">R+96</text>
<text x="204" y="1082" class="c b s">a</text>
<text x="242.0" y="1082" class="c xs">BRANCH→R+104</text>
<text x="323.3" y="1082" class="c xs m">│</text>
<text x="335.1" y="1082" class="c xs">LIT</text>
<text x="359.6" y="1082" class="c xs">'a'</text>
<text x="384.1" y="1082" class="c xs">RE-CHAR?</text>
<text x="440.1" y="1082" class="c xs">0BRANCH→R+128</text>
<text x="527.8" y="1082" class="c xs">EXIT</text>
<text x="558.5" y="1082" class="c xs">(NNODE)</text>
<text x="160" y="1103" class="m c xs">R+132</text>
<text x="204" y="1103" class="c b s">b</text>
<text x="242.0" y="1103" class="c xs">BRANCH→R+244</text>
<text x="323.3" y="1103" class="c xs m">│</text>
<text x="335.1" y="1103" class="c xs">LIT</text>
<text x="359.6" y="1103" class="c xs">'b'</text>
<text x="384.1" y="1103" class="c xs">RE-CHAR?</text>
<text x="440.1" y="1103" class="c xs">0BRANCH→R+164</text>
<text x="527.8" y="1103" class="c xs">EXIT</text>
<rect x="556.54" y="1091" width="48.23363636363637" height="16" class="hl-now" rx="3"/>
<text x="558.5" y="1103" class="c xs">(NNODE)</text>
<text x="160" y="1124" class="m c xs">R+168</text>
<text x="204" y="1124" class="c b s">c</text>
<text x="242.0" y="1124" class="c xs">BRANCH→R+228</text>
<text x="323.3" y="1124" class="c xs m">│</text>
<text x="335.1" y="1124" class="c xs">LIT</text>
<text x="359.6" y="1124" class="c xs">'c'</text>
<text x="384.1" y="1124" class="c xs">RE-CHAR?</text>
<text x="440.1" y="1124" class="c xs">0BRANCH→R+200</text>
<text x="527.8" y="1124" class="c xs">EXIT</text>
<text x="558.5" y="1124" class="c xs">(NNODE)</text>
<text x="160" y="1145" class="m c xs">R+204</text>
<text x="204" y="1145" class="c b s">|</text>
<text x="242.0" y="1145" class="c xs">BRANCH→R+228</text>
<text x="323.3" y="1145" class="c xs m">│</text>
<text x="335.1" y="1145" class="c xs">XCALL</text>
<text x="372.2" y="1145" class="c xs">R+176</text>
<text x="409.3" y="1145" class="c xs">BRANCH→R+140</text>
<text x="160" y="1166" class="m c xs">R+228</text>
<text x="204" y="1166" class="c b s">*</text>
<rect x="240" y="1154" width="35.595454545454544" height="16" class="hl-th" rx="3"/>
<text x="242.0" y="1166" class="c xs">XCALL</text>
<rect x="277.0954545454546" y="1154" width="35.595454545454544" height="16" class="hl-th" rx="3"/>
<text x="279.1" y="1166" class="c xs">R+212</text>
<rect x="314.19090909090914" y="1154" width="79.82909090909091" height="16" class="hl-pend" rx="3"/>
<text x="316.2" y="1166" class="c xs">BRANCH→R+260</text>
<text x="397.5" y="1166" class="c xs m">│</text>
<text x="409.3" y="1166" class="c xs">XCALL</text>
<text x="446.4" y="1166" class="c xs">R+212</text>
<text x="483.5" y="1166" class="c xs">BRANCH→R+260</text>
<text x="160" y="1187" class="m c xs">R+260</text>
<text x="204" y="1187" class="c b s">d</text>
<text x="242.0" y="1187" class="c xs">BRANCH→R+268</text>
<text x="323.3" y="1187" class="c xs m">│</text>
<text x="335.1" y="1187" class="c xs">LIT</text>
<text x="359.6" y="1187" class="c xs">'d'</text>
<text x="384.1" y="1187" class="c xs">RE-CHAR?</text>
<text x="440.1" y="1187" class="c xs">0BRANCH→R+292</text>
<text x="527.8" y="1187" class="c xs">EXIT</text>
<text x="558.5" y="1187" class="c xs">(NNODE)</text>
<text x="160" y="1208" class="m c xs">R+296</text>
<text x="242.0" y="1208" class="c xs">RE-ACCEPT</text>
<text x="304.4" y="1208" class="c xs">EXIT</text>
<text x="160" y="1242" class="m xs">highlighted: R+24 sentinel · R+228 thread popped from RE-NLIST · R+236 pending · R+164 executing</text>
<text x="660" y="976" class="b s">The NFA those cells encode</text>
<path d="M 740 984 V 990" class="arrow" marker-end="url(#rs-head)"/>
<path d="M 740 1036 V 1060" class="arrow" marker-end="url(#rs-head)"/>
<text x="748" y="1053" class="c s">a</text>
<path d="M 740 1106 V 1130" class="arrow" marker-end="url(#rs-head)"/>
<text x="748" y="1123" class="c s">b | c</text>
<path d="M 760 1144 C 818 1110, 818 1198, 762 1162" class="arrow now-edge" marker-end="url(#rs-head-acc)"/>
<text x="810" y="1158" class="c s acc b">b | c</text>
<path d="M 720 1094 C 630 1134, 630 1180, 718 1214" class="arrow" marker-end="url(#rs-head)"/>
<text x="646" y="1156" class="c s" text-anchor="end">d</text>
<path d="M 740 1176 V 1196" class="arrow pend-edge" marker-end="url(#rs-head)"/>
<text x="748" y="1191" class="c s th">d</text>
<circle cx="740" cy="1014" r="22" class="n"/>
<text x="740" y="1018" class="c xxs b" text-anchor="middle">R+96</text>
<circle cx="740" cy="1084" r="22" class="n"/>
<text x="740" y="1088" class="c xxs b" text-anchor="middle">R+244</text>
<circle cx="740" cy="1154" r="22" class="n n-th"/>
<text x="740" y="1158" class="c xxs b" text-anchor="middle">R+228</text>
<circle cx="740" cy="1220" r="22" class="n"/>
<circle cx="740" cy="1220" r="18" class="n"/>
<text x="740" y="1224" class="c xxs b" text-anchor="middle">R+296</text>
<text x="770" y="1018" class="m xxs">tried at every char</text>
<text x="770" y="1088" class="m xxs">after a</text>
<text x="712" y="1158" class="th xxs b" text-anchor="end">running</text>
<text x="770" y="1224" class="m xxs">accept</text>
<rect x="20" y="1267" width="12" height="12" class="k-now" rx="2"/>
<text x="38" y="1277" class="s">executing now</text>
<rect x="133.2" y="1267" width="12" height="12" class="k-th" rx="2"/>
<text x="151.2" y="1277" class="s">a thread (CLIST / NLIST)</text>
<rect x="316.8" y="1267" width="12" height="12" class="k-sen" rx="2"/>
<text x="334.8" y="1277" class="s">sentinel</text>
<rect x="398" y="1267" width="12" height="12" class="k-fc" rx="2"/>
<text x="416" y="1277" class="s">Forth call chain</text>
<rect x="530.4" y="1267" width="12" height="12" class="k-ds" rx="2"/>
<text x="548.4" y="1277" class="s">data stack</text>
<text x="20" y="1298" class="m xs">Measured, not drawn from memory: the demo’s own matcher.mjs, forth.mjs and regexp.f, driven in Node 24.18 (V8 13.6, arm64) against a copy of forth/wasm/tabulate.wast</text>
<text x="20" y="1312" class="m xs">whose $next loop calls an imported trace(cfa, ip, sp, rsp). Tiers from %IsTurboFanFunction; machine code from --print-wasm-code on the unmodified forth.wasm.</text>
</svg>
